<svg width="431.20000000000005" height="452.1" xmlns="http://www.w3.org/2000/svg" xmlns:xlink="http://www.w3.org/1999/xlink"><line x1="53.75" y1="6.0" x2="40.5" y2="29.0" style="stroke:black; stroke-width:1px;" />
<line x1="40.5" y1="35.0" x2="13.0" y2="58.0" style="stroke:black; stroke-width:1px;" />
<line x1="13.0" y1="64.0" x2="13.0" y2="87.0" style="stroke:black; stroke-width:1px;" />
<line x1="40.5" y1="35.0" x2="40.5" y2="58.0" style="stroke:black; stroke-width:1px;" />
<line x1="40.5" y1="35.0" x2="68.0" y2="58.0" style="stroke:black; stroke-width:1px;" />
<line x1="68.0" y1="64.0" x2="44.0" y2="87.0" style="stroke:black; stroke-width:1px;" />
<line x1="44.0" y1="93.0" x2="44.0" y2="116.0" style="stroke:black; stroke-width:1px;" />
<line x1="68.0" y1="64.0" x2="68.0" y2="87.0" style="stroke:black; stroke-width:1px;" />
<line x1="68.0" y1="64.0" x2="92.0" y2="87.0" style="stroke:black; stroke-width:1px;" />
<line x1="92.0" y1="93.0" x2="92.0" y2="116.0" style="stroke:black; stroke-width:1px;" />
<line x1="53.75" y1="6.0" x2="67.0" y2="29.0" style="stroke:black; stroke-width:1px;" />
<rect x="79.0" y="87.0" width="26.0" height="12.0" style="fill:orange; stroke:rgb(0,0,0);" rx="1"/>
<text x="81" y="96" style="font-family:sans-serif;font-size:10px;">
expr
</text>
<rect x="60.5" y="29.0" width="13.0" height="12.0" style="fill:orange; stroke:rgb(0,0,0);" rx="1"/>
<text x="62" y="38" style="font-family:sans-serif;font-size:10px;">
\n
</text>
<rect x="0.0" y="58.0" width="26.0" height="12.0" style="fill:orange; stroke:rgb(0,0,0);" rx="1"/>
<text x="2" y="67" style="font-family:sans-serif;font-size:10px;">
expr
</text>
<rect x="2.0" y="87.0" width="22.0" height="12.0" style="fill:orange; stroke:rgb(0,0,0);" rx="1"/>
<text x="4" y="96" style="font-family:sans-serif;font-size:10px;">
100
</text>
<rect x="27.5" y="29.0" width="26.0" height="12.0" style="fill:orange; stroke:rgb(0,0,0);" rx="1"/>
<text x="29" y="38" style="font-family:sans-serif;font-size:10px;">
expr
</text>
<rect x="40.75" y="0.0" width="26.0" height="12.0" style="fill:orange; stroke:rgb(0,0,0);" rx="1"/>
<text x="42" y="9" style="font-family:sans-serif;font-size:10px;">
prog
</text>
<rect x="64.0" y="87.0" width="8.0" height="12.0" style="fill:orange; stroke:rgb(0,0,0);" rx="1"/>
<text x="66" y="96" style="font-family:sans-serif;font-size:10px;">
*
</text>
<rect x="84.0" y="116.0" width="16.0" height="12.0" style="fill:orange; stroke:rgb(0,0,0);" rx="1"/>
<text x="86" y="125" style="font-family:sans-serif;font-size:10px;">
34
</text>
<rect x="35.5" y="58.0" width="10.0" height="12.0" style="fill:orange; stroke:rgb(0,0,0);" rx="1"/>
<text x="37" y="67" style="font-family:sans-serif;font-size:10px;">
+
</text>
<rect x="55.0" y="58.0" width="26.0" height="12.0" style="fill:orange; stroke:rgb(0,0,0);" rx="1"/>
<text x="57" y="67" style="font-family:sans-serif;font-size:10px;">
expr
</text>
<rect x="39.0" y="116.0" width="10.0" height="12.0" style="fill:orange; stroke:rgb(0,0,0);" rx="1"/>
<text x="41" y="125" style="font-family:sans-serif;font-size:10px;">
2
</text>
<rect x="31.0" y="87.0" width="26.0" height="12.0" style="fill:orange; stroke:rgb(0,0,0);" rx="1"/>
<text x="33" y="96" style="font-family:sans-serif;font-size:10px;">
expr
</text>
</svg>